<svg width="24" height="26" viewBox="0 0 24 26" fill="none" xmlns="http://www.w3.org/2000/svg">
<path d="M4.44134 7.66666H19.56C19.9445 7.66662 20.3244 7.74972 20.6738 7.91026C21.0232 8.07081 21.3337 8.30501 21.5841 8.5968C21.8345 8.88859 22.0188 9.23108 22.1244 9.60078C22.23 9.97048 22.2544 10.3586 22.196 10.7387L20.5227 21.608C20.3774 22.5526 19.8987 23.414 19.1733 24.0362C18.4479 24.6584 17.5237 25.0003 16.568 25H7.43201C6.47654 25 5.55265 24.6579 4.82751 24.0357C4.10238 23.4136 3.6239 22.5524 3.47867 21.608L1.80534 10.7387C1.7469 10.3586 1.77132 9.97048 1.87695 9.60078C1.98257 9.23108 2.16689 8.88859 2.41727 8.5968C2.66764 8.30501 2.97816 8.07081 3.32753 7.91026C3.6769 7.74972 4.05685 7.66662 4.44134 7.66666Z" stroke="#1C1C1E" stroke-width="2" stroke-linecap="round" stroke-linejoin="round"/>
<path d="M8 11.6667V5C8 3.93913 8.42143 2.92172 9.17157 2.17157C9.92172 1.42143 10.9391 1 12 1C13.0609 1 14.0783 1.42143 14.8284 2.17157C15.5786 2.92172 16 3.93913 16 5V11.6667" stroke="#1C1C1E" stroke-width="2" stroke-linecap="round" stroke-linejoin="round"/>
</svg>
