<svg width="24" height="25" viewBox="0 0 24 25" fill="none" xmlns="http://www.w3.org/2000/svg">
<path d="M10.6667 10.6667V6H13.3333V10.6667H18V13.3333H13.3333L13.3327 18H10.666V13.3333H5.99934V10.6667H10.6667Z" fill="#1C1C1E"/>
<path fill-rule="evenodd" clip-rule="evenodd" d="M5.21533 20.6607C6.84733 22.1347 8.63533 23.352 10.654 24.312C11.7353 24.8253 13.018 24.7787 14.0547 24.1873C15.8033 23.19 17.3253 21.9893 18.7967 20.6607C21.916 17.8433 23.734 13.9667 23.8533 9.878L23.9927 5.11067C24.0087 4.556 23.9933 3.33333 23.9933 3.33333C23.2929 3.22289 22.59 3.1282 21.8853 3.04933C19.7053 2.788 17.5347 2.52867 15.63 1.364L14.272 0.534001C13.6952 0.184913 13.0339 0.000366211 12.3597 0.000366211C11.6855 0.000366211 11.0241 0.184913 10.4473 0.534001L9.14667 1.32933C6.96867 2.66 4.31467 2.912 1.746 3.156C1.164 3.21133 0.586 3.26667 0.0193334 3.33333C0.0193334 3.33333 0.0033334 4.56333 0.0193334 5.126L0.158667 9.878C0.278 13.9667 2.096 17.8433 5.21533 20.6607ZM1.346 4.534C1.346 4.74733 1.348 4.944 1.35267 5.08733L1.49133 9.83933C1.6 13.5527 3.25133 17.09 6.10867 19.6713C7.65 21.0627 9.33067 22.206 11.2267 23.1073C11.5681 23.2681 11.943 23.3449 12.3201 23.3314C12.6973 23.3178 13.0657 23.2142 13.3947 23.0293C15.0313 22.096 16.474 20.962 17.9033 19.6713C20.7607 17.09 22.412 13.5533 22.5207 9.83933L22.66 5.072C22.664 4.92267 22.6667 4.71267 22.6667 4.48867C22.3547 4.44911 22.0369 4.41 21.7133 4.37133L21.6773 4.36733C20.9368 4.28418 20.1983 4.18304 19.4627 4.064C17.9667 3.81067 16.4013 3.398 14.9347 2.502L13.5767 1.67133C13.2092 1.45019 12.7885 1.33334 12.3597 1.33334C11.9308 1.33334 11.5101 1.45019 11.1427 1.67133L9.842 2.46667C8.29533 3.41133 6.58867 3.85933 4.944 4.124C3.924 4.288 2.82533 4.39267 1.79667 4.49133L1.346 4.534Z" fill="#1C1C1E"/>
</svg>
