<svg width="16" height="23" viewBox="0 0 16 23" fill="none" xmlns="http://www.w3.org/2000/svg">
<path d="M2.15467 23V21.6667C1.56178 21.6667 1.05467 21.4556 0.633333 21.0333C0.212 20.6111 0.000888889 20.1049 0 19.5147V6.488C0 5.896 0.211111 5.38933 0.633333 4.968C1.05556 4.54666 1.56222 4.33511 2.15333 4.33333H5.20533V1.10266C5.20533 0.827108 5.30756 0.587108 5.512 0.382663C5.71644 0.178219 5.956 0.0759964 6.23067 0.0759964H9.76933C10.0449 0.0759964 10.2849 0.178219 10.4893 0.382663C10.6938 0.587108 10.796 0.827108 10.796 1.10266V4.33333H13.8467C14.4387 4.33333 14.9453 4.54444 15.3667 4.96666C15.788 5.38889 15.9991 5.89555 16 6.48666V19.5133C16 20.1053 15.7889 20.612 15.3667 21.0333C14.9444 21.4547 14.4378 21.6658 13.8467 21.6667V23H12.5133V21.6667H3.48667V23H2.15467ZM6.53867 4.33333H9.46133V1.41066H6.53867V4.33333ZM8 11.5133C9.17778 11.5133 10.328 11.3631 11.4507 11.0627C12.5733 10.7622 13.6453 10.3124 14.6667 9.71333V6.48666C14.6667 6.24755 14.5898 6.05111 14.436 5.89733C14.2822 5.74355 14.0858 5.66666 13.8467 5.66666H2.15333C1.91422 5.66666 1.71778 5.74355 1.564 5.89733C1.41022 6.05111 1.33333 6.248 1.33333 6.488V9.71333C2.35556 10.3133 3.428 10.7631 4.55067 11.0627C5.67333 11.3622 6.82311 11.5124 8 11.5133ZM7.33333 14.18V12.8307C6.28089 12.7542 5.25422 12.5876 4.25333 12.3307C3.25244 12.0738 2.27911 11.7053 1.33333 11.2253V19.5133C1.33333 19.7524 1.41022 19.9489 1.564 20.1027C1.71778 20.2564 1.91467 20.3333 2.15467 20.3333H13.8467C14.0858 20.3333 14.2822 20.2564 14.436 20.1027C14.5898 19.9489 14.6667 19.7524 14.6667 19.5133V11.2253C13.72 11.7053 12.7467 12.0738 11.7467 12.3307C10.7467 12.5876 9.72 12.7542 8.66667 12.8307V14.18H7.33333Z" fill="#1C1C1E"/>
</svg>
